<?xml version="1.0" encoding="utf-8"?>
<!-- Generator: Adobe Illustrator 23.0.6, SVG Export Plug-In . SVG Version: 6.00 Build 0)  -->
<svg version="1.1" id="Layer_1" xmlns="http://www.w3.org/2000/svg" xmlns:xlink="http://www.w3.org/1999/xlink" x="0px" y="0px"
	 viewBox="0 0 500 146.1" style="enable-background:new 0 0 500 146.1;" xml:space="preserve">
<style type="text/css">
	.st0{fill:#0C0D27;}
	.st1{fill:#0097DC;}
	.st2{fill:url(#SVGID_1_);}
	.st3{fill:#2A3655;}
	.st4{fill:#0293D6;}
	.st5{fill:#0A0F25;}
	.st6{fill:#000205;}
</style>
<path class="st0" d="M175.7,49.2c0,0-22-31.7-59.2-3.9c-0.4,0.2-0.6,0.6-0.5,1v43.6l6-6c0.2-0.2,0.4,0,0.3,0.2l-6,10.7
	c-0.2,0.4-0.4,0.8-0.4,1.3c-0.1,2.5-0.5,10.5,0.8,15.8s1.1,10.4-0.5,13.3s0.5,6.4,1.9,7s-0.8,4.2-0.9,4.8s17.3,0.6,17.3,0.6
	s-0.5-7-8.7-9.8c0,0-2-2,1.1-7.8s4-7.1,4.1-9.7s-0.6-3.1,8.8-8.5s9.7-5.6,17-15.7c0.6-0.9,3.1-2.3,1.2,4s-1.1,10.4-20.8,17.8
	c-0.2-0.1-0.3,0.1-0.4,0.2s0.1,0.3,0.3,0.4l0,0c4.1,2.3,26.7,15.4,32.4,22.4c0,0-1.8,5.2,0.3,6.7h16.5c0,0-0.7-5.7-8.1-6.7
	c0,0-17.1-18.6-17.2-29.7s1.5-11,1.5-11s1.4,6.5,9.7,8.9c0.5,0,0.9,0.3,1.1,0.8c1.4,2.7,6.7,12.2,11.6,12.8c2.9,0.4,5.8-0.9,7.5-3.3
	c0.3-0.5,0.5-1.1,0.6-1.7c0.3-4.4,0.2-8.9-0.5-13.3c-0.1-0.5,0-1,0.3-1.4c2.8-4,3.6-9.1,2.2-13.8c-0.2-0.5-0.6-0.8-1.1-0.8
	c-3.3-0.1-16.3-0.8-18.1-7.7c0,0-1.4-4.3,6-6.6c0,0-12.5,11.2,17.6,12.8c0,0,20.8,1.3,27.2-5.9C226.6,71,197.3,79.7,175.7,49.2z
	 M188.8,84.9c0.8-0.2,1.7,1.2,2.2,3.1s0.1,3.5-0.6,3.7s-1.7-1.2-2.1-3.1S188.1,85,188.8,84.9z"/>
<path class="st0" d="M24.9,58.4v18.9c0,0.3,0,0.7-0.2,1c-2.9,5.2-28.8,56.4,79.9,57.2c0,0-80.7,14.4-95.9-20.3
	C8.7,115.2,0.4,97.1,24.9,58.4z"/>
<path class="st1" d="M29.5,49.7v63.1c0,0.7,0.4,1.4,1.1,1.7l19.2,9.6V32.8c0-0.5-0.4-0.9-0.9-1c-0.2,0-0.4,0.1-0.6,0.3L30.1,48.4
	C29.7,48.7,29.5,49.2,29.5,49.7z"/>
<linearGradient id="SVGID_1_" gradientUnits="userSpaceOnUse" x1="59.66" y1="2617.5601" x2="80.06" y2="2617.5601" gradientTransform="matrix(1 0 0 1 0 -2543.8601)">
	<stop  offset="0" style="stop-color:#0E66AB"/>
	<stop  offset="1" style="stop-color:#0E66AB"/>
</linearGradient>
<path class="st2" d="M59.9,33.9l-0.2,92.2l20.4,4.1v-112c0-0.5-0.4-0.9-0.9-1c-0.2,0-0.4,0.1-0.6,0.3L59.9,33.9z"/>
<path class="st3" d="M89.2,21v109.2h20.9V4.6c-0.1-0.5-0.5-0.9-1-0.9c-0.2,0.1-0.4,0.1-0.5,0.3L89.2,21z"/>
<g>
	<path class="st4" d="M217.8,98.2h-11.1v-7.8h31.7v7.8h-11.3v33.4h-9.4V98.2z"/>
	<path class="st4" d="M239.7,111.5c0-4.4-0.1-7.3-0.2-9.9h8l0.3,5.5h0.2c1.5-4.3,5.2-6.2,8.1-6.2c0.9,0,1.3,0,2,0.1v8.8
		c-0.7-0.1-1.5-0.2-2.5-0.2c-3.4,0-5.8,1.8-6.4,4.7c-0.1,0.6-0.2,1.3-0.2,2.1v15.2h-9.3V111.5z"/>
	<path class="st4" d="M279.4,131.6l-0.6-3h-0.2c-2,2.4-5,3.7-8.6,3.7c-6.1,0-9.7-4.4-9.7-9.2c0-7.8,7-11.5,17.6-11.5v-0.4
		c0-1.6-0.9-3.9-5.5-3.9c-3.1,0-6.3,1-8.3,2.3l-1.7-6c2.1-1.2,6.2-2.6,11.6-2.6c10,0,13.2,5.9,13.2,12.9v10.4c0,2.9,0.1,5.6,0.4,7.3
		H279.4z M278.3,117.5c-4.9-0.1-8.7,1.1-8.7,4.7c0,2.4,1.6,3.6,3.7,3.6c2.3,0,4.2-1.5,4.8-3.4c0.1-0.5,0.2-1,0.2-1.6V117.5z"/>
	<path class="st4" d="M323.7,88.1v34.5c0,3.4,0.1,6.9,0.2,8.9h-8.3l-0.4-4.4h-0.1c-1.9,3.4-5.5,5.1-9.4,5.1
		c-7.1,0-12.8-6.1-12.8-15.4c-0.1-10.1,6.2-15.9,13.4-15.9c3.7,0,6.6,1.3,7.9,3.4h0.1V88.1H323.7z M314.4,114.3
		c0-0.5-0.1-1.2-0.1-1.7c-0.6-2.5-2.6-4.6-5.5-4.6c-4.2,0-6.4,3.8-6.4,8.5c0,5.1,2.5,8.3,6.4,8.3c2.7,0,4.8-1.8,5.4-4.5
		c0.2-0.7,0.2-1.3,0.2-2.1V114.3z"/>
	<path class="st4" d="M338.4,119.6c0.3,3.9,4.1,5.7,8.5,5.7c3.2,0,5.8-0.4,8.3-1.2l1.2,6.3c-3.1,1.2-6.8,1.8-10.8,1.8
		c-10.2,0-16-5.9-16-15.3c0-7.6,4.7-16,15.1-16c9.7,0,13.4,7.5,13.4,14.9c0,1.6-0.2,3-0.3,3.7H338.4z M349.3,113.2
		c0-2.3-1-6.1-5.3-6.1c-3.9,0-5.5,3.6-5.8,6.1H349.3z"/>
	<path class="st6" d="M363.9,90.9c2.4-0.5,7.4-0.9,12.1-0.9c5.7,0,9.2,0.6,12.2,2.3c2.9,1.5,5,4.3,5,8.1c0,3.7-2.1,7.1-6.8,8.8v0.1
		c4.7,1.3,8.2,4.8,8.2,10.2c0,3.7-1.7,6.7-4.3,8.8c-3,2.4-8,3.7-16.2,3.7c-4.6,0-8-0.3-10.1-0.6V90.9z M373.1,106.7h3.1
		c4.9,0,7.5-2,7.5-5.1c0-3.1-2.4-4.8-6.6-4.8c-2,0-3.2,0.1-4,0.2V106.7z M373.1,125c0.9,0.1,2,0.1,3.6,0.1c4.2,0,8-1.6,8-5.9
		c0-4.2-3.7-5.8-8.4-5.8h-3.2V125z"/>
	<path class="st6" d="M428.8,122c0,3.9,0.1,7.1,0.2,9.6h-8.1l-0.4-4.2h-0.2c-1.2,1.8-4,4.9-9.4,4.9c-6.1,0-10.5-3.8-10.5-13v-17.6
		h9.4v16.1c0,4.3,1.4,7,4.7,7c2.6,0,4-1.8,4.7-3.2c0.2-0.6,0.3-1.3,0.3-2v-17.8h9.4V122z"/>
	<path class="st6" d="M436.3,88.1h9.3v43.5h-9.3V88.1z"/>
	<path class="st6" d="M453.1,88.1h9.3v43.5h-9.3V88.1z"/>
	<path class="st6" d="M467.6,126.3l9.4-11.8c1.7-2,3.1-3.5,4.8-5.3V109h-13.2v-7.4h24.5v5.6l-9,11.3c-1.7,2-3.2,3.9-4.9,5.5v0.1
		h14.4v7.4h-26V126.3z"/>
</g>
</svg>
